<svg xmlns="http://www.w3.org/2000/svg" xmlns:xlink="http://www.w3.org/1999/xlink" version="1.1" viewBox="0 0 180 180"> <defs> <filter id="alpha" filterUnits="objectBoundingBox" x="0%" y="0%" width="100%" height="100%">   <feColorMatrix type="matrix" in="SourceGraphic" values="0 0 0 0 1 0 0 0 0 1 0 0 0 0 1 0 0 0 1 0"></feColorMatrix> </filter> <mask id="mask0">   <g filter="url(#alpha)"> <rect x="0" y="0" width="180" height="180" style="fill:rgb(0%,0%,0%);fill-opacity:0.8;stroke:none;"></rect>   </g> </mask> <clipPath id="clip1">   <rect x="0" y="0" width="180" height="180"></rect> </clipPath> <g id="surface5" clip-path="url(#clip1)"> <path style="fill-rule:nonzero;fill:rgb(26.666667%,26.666667%,80%);fill-opacity:1;stroke-width:1;stroke-linecap:butt;stroke-linejoin:miter;stroke:rgb(50.196078%,50.196078%,50.196078%);stroke-opacity:1;stroke-miterlimit:4;" d="M 90 90 L 108 90 C 108.234375 88.339844 108.234375 86.660156 108 85 Z M 90 90 "></path> <path style="fill-rule:nonzero;fill:rgb(73.333333%,80%,20%);fill-opacity:1;stroke-width:1;stroke-linecap:butt;stroke-linejoin:miter;stroke:rgb(50.196078%,50.196078%,50.196078%);stroke-opacity:1;stroke-miterlimit:4;" d="M 90 90 L 124 47 C 119.445312 43.570312 114.382812 40.875 109 39 Z M 90 90 "></path> <path style="fill-rule:nonzero;fill:rgb(86.666667%,60%,20%);fill-opacity:1;stroke-width:1;stroke-linecap:butt;stroke-linejoin:miter;stroke:rgb(50.196078%,50.196078%,50.196078%);stroke-opacity:1;stroke-miterlimit:4;" d="M 90 90 L 74 18 C 62.628906 20.492188 52.011719 25.632812 43 33 Z M 90 90 "></path> <path style="fill-rule:nonzero;fill:rgb(86.666667%,73.333333%,20%);fill-opacity:1;stroke-width:1;stroke-linecap:butt;stroke-linejoin:miter;stroke:rgb(50.196078%,50.196078%,50.196078%);stroke-opacity:1;stroke-miterlimit:4;" d="M 90 90 L 32 62 C 26.347656 74.171875 24.601562 87.796875 27 101 Z M 90 90 "></path> <path style="fill-rule:nonzero;fill:rgb(20%,73.333333%,73.333333%);fill-opacity:1;stroke-width:1;stroke-linecap:butt;stroke-linejoin:miter;stroke:rgb(50.196078%,50.196078%,50.196078%);stroke-opacity:1;stroke-miterlimit:4;" d="M 90 90 L 57 106 C 57.542969 107.714844 58.210938 109.382812 59 111 Z M 90 90 "></path> <path style="fill-rule:nonzero;fill:rgb(20%,80%,60%);fill-opacity:1;stroke-width:1;stroke-linecap:butt;stroke-linejoin:miter;stroke:rgb(50.196078%,50.196078%,50.196078%);stroke-opacity:1;stroke-miterlimit:4;" d="M 90 90 L 80 135 C 85.941406 136.183594 92.058594 136.183594 98 135 Z M 90 90 "></path> <path style="fill-rule:nonzero;fill:rgb(86.666667%,46.666667%,20%);fill-opacity:1;stroke-width:1;stroke-linecap:butt;stroke-linejoin:miter;stroke:rgb(50.196078%,50.196078%,50.196078%);stroke-opacity:1;stroke-miterlimit:4;" d="M 90 90 L 136 148 C 140.445312 144.472656 144.472656 140.445312 148 136 Z M 90 90 "></path> </g> </defs> <g id="surface1"> <path style="fill-rule:nonzero;fill:rgb(100%,100%,100%);fill-opacity:1;stroke-width:2;stroke-linecap:butt;stroke-linejoin:miter;stroke:rgb(50.196078%,50.196078%,50.196078%);stroke-opacity:1;stroke-miterlimit:4;" d="M 178 90 C 178 138.601562 138.601562 178 90 178 C 41.398438 178 2 138.601562 2 90 C 2 41.398438 41.398438 2 90 2 C 138.601562 2 178 41.398438 178 90 Z M 178 90 "></path> <path style="fill-rule:nonzero;fill:rgb(100%,100%,100%);fill-opacity:1;stroke-width:2;stroke-linecap:butt;stroke-linejoin:miter;stroke:rgb(50.196078%,50.196078%,50.196078%);stroke-opacity:1;stroke-miterlimit:4;" d="M 156 90 C 156 126.449219 126.449219 156 90 156 C 53.550781 156 24 126.449219 24 90 C 24 53.550781 53.550781 24 90 24 C 126.449219 24 156 53.550781 156 90 Z M 156 90 "></path> <path style="fill-rule:nonzero;fill:rgb(100%,100%,100%);fill-opacity:1;stroke-width:2;stroke-linecap:butt;stroke-linejoin:miter;stroke:rgb(50.196078%,50.196078%,50.196078%);stroke-opacity:1;stroke-miterlimit:4;" d="M 134 90 C 134 114.300781 114.300781 134 90 134 C 65.699219 134 46 114.300781 46 90 C 46 65.699219 65.699219 46 90 46 C 114.300781 46 134 65.699219 134 90 Z M 134 90 "></path> <path style="fill-rule:nonzero;fill:rgb(100%,100%,100%);fill-opacity:1;stroke-width:2;stroke-linecap:butt;stroke-linejoin:miter;stroke:rgb(50.196078%,50.196078%,50.196078%);stroke-opacity:1;stroke-miterlimit:4;" d="M 112 90 C 112 102.148438 102.148438 112 90 112 C 77.851562 112 68 102.148438 68 90 C 68 77.851562 77.851562 68 90 68 C 102.148438 68 112 77.851562 112 90 Z M 112 90 "></path> <path style="fill-rule:nonzero;fill:rgb(100%,100%,100%);fill-opacity:1;stroke-width:2;stroke-linecap:butt;stroke-linejoin:miter;stroke:rgb(50.196078%,50.196078%,50.196078%);stroke-opacity:1;stroke-miterlimit:4;" d="M 90 2 L 90 178 M 152 152 L 28 28 M 152 28 L 28 152 M 178 90 L 2 90 "></path> <use xlink:href="#surface5" mask="url(#mask0)"></use> </g> </svg>
